<mxfile host="app.diagrams.net" modified="2020-10-25T08:11:15.572Z" agent="5.0 (Macintosh; Intel Mac OS X 10_15_7) AppleWebKit/537.36 (KHTML, like Gecko) Chrome/86.0.4240.111 Safari/537.36" etag="8ZXn5-HfvG9EpKLI6OGe" version="13.8.2" type="github">
  <diagram name="Page-1" id="c9db0220-8083-56f3-ca83-edcdcd058819">
    <mxGraphModel dx="1135" dy="653" grid="1" gridSize="10" guides="1" tooltips="1" connect="1" arrows="1" fold="1" page="1" pageScale="1.5" pageWidth="826" pageHeight="1169" background="#ffffff" math="0" shadow="0">
      <root>
        <mxCell id="0" style=";html=1;" />
        <mxCell id="1" style=";html=1;" parent="0" />
        <mxCell id="Vazs04PsXt7cwtrwzwDm-1" value="" style="strokeWidth=1;shadow=0;dashed=0;align=center;html=1;shape=mxgraph.mockup.containers.browserWindow;rSize=0;strokeColor2=#008cff;strokeColor3=#c4c4c4;mainText=,;recursiveResize=0;strokeColor=#FFFFFF;fontColor=#FFFFFF;" vertex="1" parent="1">
          <mxGeometry x="64" y="1150" width="696" height="660" as="geometry" />
        </mxCell>
        <mxCell id="Vazs04PsXt7cwtrwzwDm-2" value="Page 1" style="strokeWidth=1;shadow=0;dashed=0;align=center;html=1;shape=mxgraph.mockup.containers.anchor;fontSize=17;fontColor=#666666;align=left;" vertex="1" parent="Vazs04PsXt7cwtrwzwDm-1">
          <mxGeometry x="60" y="12" width="110" height="26" as="geometry" />
        </mxCell>
        <mxCell id="Vazs04PsXt7cwtrwzwDm-3" value="https://opendesk.com" style="strokeWidth=1;shadow=0;dashed=0;align=center;html=1;shape=mxgraph.mockup.containers.anchor;rSize=0;fontSize=17;fontColor=#666666;align=left;" vertex="1" parent="Vazs04PsXt7cwtrwzwDm-1">
          <mxGeometry x="130" y="60" width="250" height="26" as="geometry" />
        </mxCell>
        <mxCell id="Vazs04PsXt7cwtrwzwDm-4" value="" style="verticalLabelPosition=bottom;shadow=0;dashed=0;align=center;html=1;verticalAlign=top;strokeWidth=1;shape=mxgraph.mockup.containers.videoPlayer;strokeColor=#666666;strokeColor2=#008cff;strokeColor3=#c4c4c4;textColor=#666666;fillColor2=#008cff;barHeight=30;barPos=20;" vertex="1" parent="Vazs04PsXt7cwtrwzwDm-1">
          <mxGeometry y="110" width="700" height="550" as="geometry" />
        </mxCell>
        <mxCell id="Vazs04PsXt7cwtrwzwDm-5" value="R Corp" style="text;html=1;strokeColor=none;fillColor=none;align=center;verticalAlign=middle;whiteSpace=wrap;rounded=0;fontSize=13;fontColor=#0066CC;" vertex="1" parent="Vazs04PsXt7cwtrwzwDm-1">
          <mxGeometry x="60" y="133.5" width="100" height="20" as="geometry" />
        </mxCell>
        <mxCell id="Vazs04PsXt7cwtrwzwDm-7" value="R" style="text;html=1;align=center;verticalAlign=middle;resizable=0;points=[];autosize=1;fontSize=37;fontFamily=Tahoma;fillColor=#008CFF;fontColor=#FFFFFF;" vertex="1" parent="Vazs04PsXt7cwtrwzwDm-1">
          <mxGeometry x="10" y="115" width="40" height="50" as="geometry" />
        </mxCell>
        <mxCell id="Vazs04PsXt7cwtrwzwDm-8" value="&lt;span style=&quot;font-size: 15px&quot;&gt;&lt;b&gt;User Screen&lt;/b&gt;&lt;/span&gt;" style="text;html=1;strokeColor=none;fillColor=none;align=center;verticalAlign=middle;whiteSpace=wrap;rounded=0;fontSize=13;fontColor=#0066CC;" vertex="1" parent="Vazs04PsXt7cwtrwzwDm-1">
          <mxGeometry x="237" y="133.5" width="185" height="20" as="geometry" />
        </mxCell>
        <mxCell id="Vazs04PsXt7cwtrwzwDm-58" value="" style="html=1;shadow=0;dashed=0;shape=mxgraph.bootstrap.rrect;rSize=5;strokeColor=#DFDFDF;html=1;whiteSpace=wrap;fillColor=#ffffff;fontColor=#000000;verticalAlign=top;align=left;spacing=20;fontSize=14;spacingLeft=170;" vertex="1" parent="Vazs04PsXt7cwtrwzwDm-1">
          <mxGeometry x="30" y="230" width="560" height="130" as="geometry" />
        </mxCell>
        <mxCell id="Vazs04PsXt7cwtrwzwDm-75" value="" style="html=1;shadow=0;dashed=0;shape=mxgraph.bootstrap.rrect;rSize=5;strokeColor=#DFDFDF;html=1;whiteSpace=wrap;fillColor=#ffffff;fontColor=#000000;verticalAlign=top;align=left;spacing=20;fontSize=14;spacingLeft=170;" vertex="1" parent="Vazs04PsXt7cwtrwzwDm-1">
          <mxGeometry x="30" y="380" width="570" height="170" as="geometry" />
        </mxCell>
        <mxCell id="Vazs04PsXt7cwtrwzwDm-78" value="Current Booking&lt;br&gt;" style="html=1;shadow=0;dashed=0;shape=mxgraph.bootstrap.rrect;rSize=5;strokeColor=none;strokeWidth=1;fillColor=#33A64C;fontColor=#FFFFFF;whiteSpace=wrap;align=left;verticalAlign=middle;spacingLeft=0;fontStyle=1;fontSize=14;spacing=5;" vertex="1" parent="Vazs04PsXt7cwtrwzwDm-1">
          <mxGeometry x="50" y="240" width="120" height="30" as="geometry" />
        </mxCell>
        <UserObject label="Starting: %date{ddd mmm dd yyyy HH:MM:ss}%" placeholders="1" id="Vazs04PsXt7cwtrwzwDm-79">
          <mxCell style="text;html=1;strokeColor=none;fillColor=none;align=center;verticalAlign=middle;whiteSpace=wrap;overflow=hidden;" vertex="1" parent="Vazs04PsXt7cwtrwzwDm-1">
            <mxGeometry x="350" y="245" width="160" height="20" as="geometry" />
          </mxCell>
        </UserObject>
        <mxCell id="Vazs04PsXt7cwtrwzwDm-80" value="&lt;h1&gt;Site 1&lt;/h1&gt;&lt;p&gt;Floor:&amp;nbsp; 2&lt;sup&gt;nd&lt;/sup&gt;&lt;span style=&quot;vertical-align: super&quot;&gt;&amp;nbsp;&lt;/span&gt;&lt;/p&gt;&lt;p&gt;&lt;span style=&quot;vertical-align: super&quot;&gt;Desk: 2A-45&lt;/span&gt;&lt;/p&gt;" style="text;html=1;fillColor=none;spacing=5;spacingTop=-20;whiteSpace=wrap;overflow=hidden;rounded=0;shadow=0;strokeWidth=2;glass=1;strokeColor=#CCE5FF;" vertex="1" parent="Vazs04PsXt7cwtrwzwDm-1">
          <mxGeometry x="264" y="240" width="246" height="100" as="geometry" />
        </mxCell>
        <mxCell id="Vazs04PsXt7cwtrwzwDm-81" value="Cancel" style="html=1;shadow=0;dashed=0;shape=mxgraph.bootstrap.rrect;rSize=5;strokeColor=none;strokeWidth=1;fillColor=#DB2843;fontColor=#FFFFFF;whiteSpace=wrap;align=left;verticalAlign=middle;spacingLeft=0;fontStyle=1;fontSize=14;spacing=5;rounded=0;glass=1;" vertex="1" parent="Vazs04PsXt7cwtrwzwDm-1">
          <mxGeometry x="444" y="310" width="60" height="20" as="geometry" />
        </mxCell>
        <mxCell id="Vazs04PsXt7cwtrwzwDm-82" value="Edit" style="html=1;shadow=0;dashed=0;shape=mxgraph.bootstrap.rrect;rSize=5;strokeColor=none;strokeWidth=1;fillColor=#0085FC;fontColor=#FFFFFF;whiteSpace=wrap;align=left;verticalAlign=middle;spacingLeft=0;fontStyle=1;fontSize=14;spacing=5;rounded=0;glass=1;" vertex="1" parent="Vazs04PsXt7cwtrwzwDm-1">
          <mxGeometry x="371" y="310" width="60" height="20" as="geometry" />
        </mxCell>
        <mxCell id="Vazs04PsXt7cwtrwzwDm-83" value="Add Booking" style="html=1;shadow=0;dashed=0;shape=mxgraph.bootstrap.rrect;rSize=5;strokeColor=none;strokeWidth=1;fillColor=#0085FC;fontColor=#FFFFFF;whiteSpace=wrap;align=center;verticalAlign=middle;spacingLeft=0;fontStyle=0;fontSize=16;spacing=5;rounded=0;glass=1;" vertex="1" parent="Vazs04PsXt7cwtrwzwDm-1">
          <mxGeometry x="44" y="390" width="126" height="30" as="geometry" />
        </mxCell>
        <mxCell id="Vazs04PsXt7cwtrwzwDm-84" value="Choose..." style="html=1;shadow=0;dashed=0;shape=mxgraph.bootstrap.rrect;rSize=5;fillColor=#ffffff;strokeColor=#999999;align=left;spacing=15;fontSize=14;fontColor=#6C767D;rounded=0;glass=1;" vertex="1" parent="Vazs04PsXt7cwtrwzwDm-1">
          <mxGeometry x="247.5" y="400" width="100" height="30" as="geometry" />
        </mxCell>
        <mxCell id="Vazs04PsXt7cwtrwzwDm-85" value="" style="shape=triangle;direction=south;fillColor=#343A40;strokeColor=none;perimeter=none;" vertex="1" parent="Vazs04PsXt7cwtrwzwDm-84">
          <mxGeometry x="1" y="0.5" width="7" height="3" relative="1" as="geometry">
            <mxPoint x="-17" y="1" as="offset" />
          </mxGeometry>
        </mxCell>
        <mxCell id="Vazs04PsXt7cwtrwzwDm-86" value="" style="shape=triangle;direction=north;fillColor=#343A40;strokeColor=none;perimeter=none;" vertex="1" parent="Vazs04PsXt7cwtrwzwDm-84">
          <mxGeometry x="1" y="0.5" width="7" height="3" relative="1" as="geometry">
            <mxPoint x="-17" y="-4" as="offset" />
          </mxGeometry>
        </mxCell>
        <mxCell id="Vazs04PsXt7cwtrwzwDm-87" value="Remember my preference" style="html=1;shadow=0;dashed=0;shape=mxgraph.bootstrap.checkbox2;labelPosition=right;verticalLabelPosition=middle;align=left;verticalAlign=middle;gradientColor=#DEDEDE;fillColor=#EDEDED;strokeColor=#A6A6A6;checked=0;spacing=5;checkedFill=#0085FC;checkedStroke=#ffffff;rounded=0;glass=1;" vertex="1" parent="Vazs04PsXt7cwtrwzwDm-1">
          <mxGeometry x="357.5" y="410" width="10" height="10" as="geometry" />
        </mxCell>
        <mxCell id="Vazs04PsXt7cwtrwzwDm-88" value="Submit" style="html=1;shadow=0;dashed=0;shape=mxgraph.bootstrap.rrect;rSize=5;fillColor=#0085FC;strokeColor=none;align=center;spacing=15;fontSize=14;fontColor=#ffffff;rounded=0;glass=1;" vertex="1" parent="Vazs04PsXt7cwtrwzwDm-1">
          <mxGeometry x="530" y="510" width="60" height="30" as="geometry" />
        </mxCell>
        <mxCell id="Vazs04PsXt7cwtrwzwDm-89" value="&lt;b&gt;&lt;font style=&quot;font-size: 14px&quot;&gt;Site&lt;/font&gt;&lt;/b&gt;" style="text;html=1;strokeColor=none;fillColor=none;align=center;verticalAlign=middle;whiteSpace=wrap;rounded=0;shadow=0;glass=1;" vertex="1" parent="Vazs04PsXt7cwtrwzwDm-1">
          <mxGeometry x="184" y="405" width="40" height="20" as="geometry" />
        </mxCell>
        <mxCell id="Vazs04PsXt7cwtrwzwDm-97" value="Floor 1" style="html=1;shadow=0;dashed=0;shape=mxgraph.bootstrap.rrect;rSize=5;strokeColor=none;strokeWidth=1;fillColor=#1CA5B8;fontColor=#FFFFFF;whiteSpace=wrap;align=center;verticalAlign=middle;spacingLeft=0;fontStyle=0;fontSize=16;spacing=5;rounded=0;glass=1;" vertex="1" parent="Vazs04PsXt7cwtrwzwDm-1">
          <mxGeometry x="248" y="458" width="72" height="40" as="geometry" />
        </mxCell>
        <mxCell id="Vazs04PsXt7cwtrwzwDm-98" value="Floor 2" style="html=1;shadow=0;dashed=0;shape=mxgraph.bootstrap.rrect;rSize=5;strokeColor=#1CA5B8;strokeWidth=1;fillColor=none;fontColor=#1CA5B8;whiteSpace=wrap;align=center;verticalAlign=middle;spacingLeft=0;fontStyle=0;fontSize=16;spacing=5;rounded=0;glass=1;" vertex="1" parent="Vazs04PsXt7cwtrwzwDm-1">
          <mxGeometry x="329" y="458" width="66" height="40" as="geometry" />
        </mxCell>
        <mxCell id="Vazs04PsXt7cwtrwzwDm-99" value="Floor 3" style="html=1;shadow=0;dashed=0;shape=mxgraph.bootstrap.rrect;rSize=5;strokeColor=#1CA5B8;strokeWidth=1;fillColor=none;fontColor=#1CA5B8;whiteSpace=wrap;align=center;verticalAlign=middle;spacingLeft=0;fontStyle=0;fontSize=16;spacing=5;rounded=0;glass=1;" vertex="1" parent="Vazs04PsXt7cwtrwzwDm-1">
          <mxGeometry x="400.5" y="458" width="59" height="40" as="geometry" />
        </mxCell>
        <mxCell id="Vazs04PsXt7cwtrwzwDm-100" value="&lt;font color=&quot;#ffffff&quot;&gt;Floor 4&lt;/font&gt;" style="html=1;shadow=0;dashed=0;shape=mxgraph.bootstrap.rrect;rSize=5;strokeColor=#1CA5B8;strokeWidth=1;fontColor=#1CA5B8;whiteSpace=wrap;align=center;verticalAlign=middle;spacingLeft=0;fontStyle=0;fontSize=16;spacing=5;rounded=0;glass=1;fillColor=#FF6666;" vertex="1" parent="Vazs04PsXt7cwtrwzwDm-1">
          <mxGeometry x="464" y="458" width="66" height="40" as="geometry" />
        </mxCell>
        <mxCell id="Vazs04PsXt7cwtrwzwDm-202" value="Date" style="fillColor=none;strokeColor=none;html=1;fontSize=11;fontStyle=0;align=left;fontColor=#596780;fontStyle=1;fontSize=11;rounded=0;shadow=0;glass=1;" vertex="1" parent="Vazs04PsXt7cwtrwzwDm-1">
          <mxGeometry x="40" y="430" width="240" height="20" as="geometry" />
        </mxCell>
        <mxCell id="Vazs04PsXt7cwtrwzwDm-203" value="25/10/2020" style="rounded=1;arcSize=9;fillColor=#F7F8F9;align=left;spacingLeft=5;strokeColor=#DEE1E6;html=1;strokeWidth=2;fontColor=#596780;fontSize=12;shadow=0;glass=1;" vertex="1" parent="Vazs04PsXt7cwtrwzwDm-1">
          <mxGeometry x="40" y="460" width="150" height="33" as="geometry" />
        </mxCell>
        <mxCell id="Vazs04PsXt7cwtrwzwDm-204" value="" style="shape=mxgraph.gmdl.calendar;fillColor=#5A6881;strokeColor=none" vertex="1" parent="Vazs04PsXt7cwtrwzwDm-203">
          <mxGeometry x="1" y="0.5" width="18" height="18" relative="1" as="geometry">
            <mxPoint x="-29" y="-9" as="offset" />
          </mxGeometry>
        </mxCell>
        <mxCell id="Vazs04PsXt7cwtrwzwDm-207" value="Booking confirmed for 25&lt;sup&gt;th&lt;/sup&gt; Oct, 2020 at Site 2, Floor 1 R Corp!" style="html=1;shadow=0;dashed=0;shape=mxgraph.bootstrap.rrect;rSize=5;strokeColor=none;strokeWidth=1;fillColor=#E0F0D6;fontColor=#59B958;whiteSpace=wrap;align=left;verticalAlign=middle;spacingLeft=10;rounded=0;glass=1;" vertex="1" parent="Vazs04PsXt7cwtrwzwDm-1">
          <mxGeometry x="30" y="574" width="599" height="30" as="geometry" />
        </mxCell>
      </root>
    </mxGraphModel>
  </diagram>
</mxfile>
